<svg xmlns="http://www.w3.org/2000/svg" xmlns:xlink="http://www.w3.org/1999/xlink" version="1.1" width="800" height="800" viewBox="0 0 512 512">
<desc>Created with SVGMaker Editor 3.0.0</desc>
<defs>
</defs>
<path transform="translate(0,0)" style="fill: rgb(128,108,0)" stroke-linecap="round" d="M461.4839 264.8155C464.0784 214.1568 423.0155 173.1117 297.3415 170.8604 234.3064 170.5051 110.2682 169.8138 110.2682 169.8138L114.3681 355.8811C114.3681 355.8811 238.4069 356.572 301.4498 356.935 423.0159 362.6442 464.0786 309.5266 461.4839 264.8155Z"/>
<polygon transform="translate(0,0)" style="fill: rgb(128,108,0)" points="55.2492,170.2297 57.816,356.3162 93.843,356.8148 91.2675,170.7205"/>
<path transform="translate(0,0)" style="fill: rgb(215,192,153); fill-opacity: 0.56" stroke-linecap="round" d="M440.7027 229.72C421.9907 203.8355 378.4292 182.3576 294.8338 179.7341 253.2162 178.8142 171.3259 177.008 171.3259 177.008L259.2874 213.3531C413.0188 251.7683 330.9121 274.0466 372.5378 274.9705 454.8241 279.3148 460.4315 252.6228 440.7027 229.72Z"/>
</svg>