<svg xmlns="http://www.w3.org/2000/svg" xmlns:xlink="http://www.w3.org/1999/xlink" version="1.1" width="64" height="64" viewBox="0 0 512 512">
<desc>Created with SVGMaker Editor 3.0.0</desc>
<defs>
</defs>
<path transform="translate(0,0)" style="stroke: rgb(0,0,0); fill: rgb(82,82,82)" vector-effect="non-scaling-stroke" stroke-linecap="round" d="M470.7252 25.0005L470.7252 62.5213 430.9895 62.5213 430.9895 6.8407 440.5437 11.2062 448.8325 15.0663 462.0563 21.0772 470.7252 25.0005Z"/>
<path transform="translate(0,0)" style="stroke: rgb(0,0,0); fill: rgb(97,97,97)" vector-effect="non-scaling-stroke" stroke-linecap="round" d="M504.0068 66.5068L504.0068 118.5187C504.0068 128.9582 495.5916 137.3743 485.2143 137.3743L240.6624 137.3743C230.2229 137.3743 221.8068 128.9582 221.8068 118.5187L221.8068 66.5068C221.8068 56.1936 230.2219 47.7143 240.6624 47.7143L485.2143 47.7143C486.5428 47.7143 487.8713 47.8407 489.1376 48.1575 496.3506 49.6765 502.0456 55.3705 503.5636 62.5844 503.8804 63.8498 504.0068 65.1783 504.0068 66.5068Z"/>
<path transform="translate(0,0)" style="stroke: rgb(0,0,0); fill: rgb(82,82,82)" vector-effect="non-scaling-stroke" stroke-linecap="round" d="M172.8338 70.2406L167.962 124.34C167.962 124.34 160.1163 134.4646 142.7155 135.4132 136.1352 135.7931 128.099 134.8427 118.6712 131.4898 84.4401 119.2787 95.8291 75.4302 96.1459 66.0665 96.4627 56.7019 79.1251 55.3092 70.8995 47.0214 62.6106 38.7326 89.5646 31.1396 118.5449 53.5376 127.9095 60.7506 136.451 65.1793 143.8545 67.9014 159.5468 73.4049 170.1758 71.0637 172.8338 70.2406Z"/>
<path transform="translate(0,0)" style="stroke: rgb(0,0,0); fill: rgb(181,181,181)" vector-effect="non-scaling-stroke" stroke-linecap="round" d="M220.833 275.0705C206.3215 271.775 186.495 251.55 186.495 231.8527L186.495 225.2714C185.4016 225.1791 184.2996 225.1208 183.1839 225.1208L171.5704 225.1208C170.0281 225.1208 168.5082 225.2199 167.0105 225.3949L167.0105 231.8527C167.0105 257.3188 194.7255 279.4311 212.653 285.3564 215.278 286.2243 220.833 275.0705 220.833 275.0705Z"/>
<path transform="translate(0,0)" style="stroke: rgb(0,0,0); fill: rgb(181,181,181)" vector-effect="non-scaling-stroke" stroke-linecap="round" d="M274.5145 221.7165L274.5145 221.6533C274.3882 216.1498 273.2492 210.8338 271.288 205.8346L271.288 205.7715C269.0732 200.0775 265.7835 194.7615 261.6707 190.0801 258.8232 186.8536 255.5967 183.943 252.0533 181.3491 249.9658 179.8943 247.751 178.5026 245.473 177.1741 245.4098 177.1741 245.3467 177.1741 245.3467 177.0478 235.9189 171.9855 224.8457 169.0116 212.9504 169.0116L133.3528 169.0116C99.3122 169.0116 71.6614 193.3076 71.6614 223.2354L71.6614 265.3132C71.6614 294.9252 98.6795 318.9685 132.2138 319.539L212.9504 319.539C246.9279 319.539 274.5786 295.241 274.5786 265.3132L274.5786 223.2354C274.5777 222.7933 274.5777 222.2869 274.5145 221.7165ZM256.7979 265.3132C256.7979 286.5722 237.12 303.9089 212.9494 303.9089L133.3518 303.9089C109.118 303.9089 89.4402 286.5722 89.4402 265.3132L89.4402 223.2354C89.4402 201.9764 109.118 184.703 133.3518 184.703L212.9494 184.703C216.8727 184.703 220.7319 185.0829 224.3384 186.0315 232.5641 187.9936 239.7771 191.915 245.3457 197.3573 245.4089 197.3573 245.472 197.3573 245.472 197.4836 246.991 198.8753 248.3827 200.4575 249.5849 202.164 250.4702 203.304 251.2934 204.5061 251.9892 205.7715 251.9892 205.7715 251.9892 205.8346 252.0524 205.8346 254.8367 210.6433 256.481 216.0224 256.6715 221.6533L256.6715 221.7165C256.7979 222.2869 256.7979 222.7933 256.7979 223.2354L256.7979 265.3132Z"/>
<path transform="translate(0,0)" style="stroke: rgb(0,0,0); fill: rgb(164,122,50)" vector-effect="non-scaling-stroke" stroke-linecap="round" d="M186.8808 236.0802C186.2481 236.3339 185.6154 236.5234 184.9828 236.6507 181.249 237.2844 178.1488 240.194 175.555 244.8132 174.3528 246.7753 173.3401 249.1155 172.3916 251.5821L172.3916 251.6452C169.0378 260.6309 166.8239 272.842 165.4313 286.3205 165.0513 289.166 164.7986 292.0777 164.546 295.0515 164.2923 297.9622 164.1028 300.936 163.9133 303.9088 163.5974 309.0975 163.3438 314.4135 163.2174 319.539 162.0784 354.0859 163.9765 386.1644 163.9765 386.1644 163.9765 386.1644 113.5477 386.1644 65.5864 386.1644L6.4247 386.1644C6.4878 381.8621 6.6151 377.6229 6.8047 373.5101L6.8047 372.7521C13.9545 224.7544 119.8744 150.8518 119.8744 150.8518L188.1461 150.8518C188.1461 150.8518 190.6136 158.3807 193.1443 169.0116 194.2833 173.7571 195.4854 179.0711 196.4981 184.703 197.5739 190.9033 198.3961 197.3573 198.7761 203.6218 199.5983 219.1236 197.1939 232.7264 186.8808 236.0802Z"/>
<path transform="translate(0,0)" style="stroke: rgb(0,0,0); fill: rgb(97,97,97)" vector-effect="non-scaling-stroke" stroke-linecap="round" d="M391.6329 75.6829L391.6329 216.7814C391.6329 232.2842 379.1049 244.8132 363.6663 244.8132L169.3537 244.8132C154.5477 244.0532 142.7155 231.9052 142.7155 216.7814L142.7155 75.6829C142.7155 72.9608 143.0955 70.4311 143.8545 67.9004 147.2074 56.2578 157.9647 47.7153 170.6822 47.7153L363.6663 47.7153C374.5489 47.7153 383.9767 53.9798 388.5959 63.0898 390.558 66.8236 391.6329 71.1259 391.6329 75.6829Z"/>
<rect transform="translate(0,0)" style="stroke: rgb(0,0,0); fill: rgb(139,139,139)" x="245.3195" y="78.3341" width="123.7094" height="143.3814" vector-effect="non-scaling-stroke"/>
<path transform="translate(0,0)" style="stroke: rgb(0,0,0); fill: rgb(89,90,89)" vector-effect="non-scaling-stroke" stroke-linecap="round" d="M303.8728 122.4916L233.8547 122.4916C227.1218 122.4916 221.6124 116.9822 221.6124 110.2493L221.6124 110.2493C221.6124 103.5164 227.1218 98.007 233.8547 98.007L303.8738 98.007C310.6067 98.007 316.1161 103.5164 316.1161 110.2493L316.1161 110.2493C316.1151 116.9822 310.6067 122.4916 303.8728 122.4916Z"/>
<path transform="translate(0,0)" style="stroke: rgb(0,0,0); fill: rgb(89,90,89)" vector-effect="non-scaling-stroke" stroke-linecap="round" d="M303.8728 162.441L233.8547 162.441C227.1218 162.441 221.6124 156.9317 221.6124 150.1987L221.6124 150.1987C221.6124 143.4658 227.1218 137.9565 233.8547 137.9565L303.8738 137.9565C310.6067 137.9565 316.1161 143.4658 316.1161 150.1987L316.1161 150.1987C316.1151 156.9317 310.6067 162.441 303.8728 162.441Z"/>
<path transform="translate(0,0)" style="stroke: rgb(0,0,0); fill: rgb(89,90,89)" vector-effect="non-scaling-stroke" stroke-linecap="round" d="M303.8728 205.8269L233.8547 205.8269C227.1218 205.8269 221.6124 200.3175 221.6124 193.5846L221.6124 193.5846C221.6124 186.8517 227.1218 181.3423 233.8547 181.3423L303.8738 181.3423C310.6067 181.3423 316.1161 186.8517 316.1161 193.5846L316.1161 193.5846C316.1151 200.3175 310.6067 205.8269 303.8728 205.8269Z"/>
<path transform="translate(0,0)" style="stroke: rgb(0,0,0); fill: rgb(139,139,139)" vector-effect="non-scaling-stroke" stroke-linecap="round" d="M245.4478 221.112C206.0999 221.112 174.2022 189.2142 174.2022 149.8664 174.2022 110.5185 206.0999 78.6208 245.4478 78.6208L245.4478 221.112Z"/>
</svg>