<svg xmlns="http://www.w3.org/2000/svg" xmlns:xlink="http://www.w3.org/1999/xlink" version="1.1" width="800" height="800" viewBox="0 0 512 512">
<desc>Created with SVGMaker Editor 3.0.0</desc>
<defs>
</defs>
<path transform="translate(0,0)" style="stroke: rgb(241,238,238); stroke-width: 2; stroke-dasharray: ; stroke-linecap: round; fill: rgb(128,108,0)" vector-effect="non-scaling-stroke" stroke-linecap="round" d="M461.9839 265.3155C464.5784 214.6568 423.5155 173.6117 297.8415 171.3604 234.8064 171.0051 110.7682 170.3138 110.7682 170.3138L114.8681 356.3811C114.8681 356.3811 238.9069 357.072 301.9498 357.435 423.5159 363.1442 464.5786 310.0266 461.9839 265.3155Z"/>
<polygon transform="translate(0,0)" style="stroke: rgb(241,238,238); stroke-width: 2; stroke-dasharray: ; fill: rgb(128,108,0)" vector-effect="non-scaling-stroke" points="55.7492,170.7297 58.316,356.8162 94.343,357.3148 91.7675,171.2205"/>
<path transform="translate(0,0)" style="stroke: rgb(241,238,238); stroke-width: 2; stroke-dasharray: ; stroke-linecap: round; fill: rgb(215,192,153); fill-opacity: 0.56" vector-effect="non-scaling-stroke" stroke-linecap="round" d="M441.2027 230.22C422.4907 204.3355 378.9292 182.8576 295.3338 180.2341 253.7162 179.3142 171.8259 177.508 171.8259 177.508L259.7874 213.8531C413.5188 252.2683 331.4121 274.5466 373.0378 275.4705 455.3241 279.8148 460.9315 253.1228 441.2027 230.22Z"/>
</svg>