<svg xmlns="http://www.w3.org/2000/svg" xmlns:xlink="http://www.w3.org/1999/xlink" version="1.1" width="1000" height="600" viewBox="0 0 1000 600">
<desc>Created with SVGMaker Editor 3.0.0</desc>
<defs>
</defs>
<path transform="translate(0,0)" style="stroke: rgb(9,10,12); stroke-width: 7; stroke-linecap: round; stroke-linejoin: round; fill: rgb(9,10,12)" stroke-linecap="round" d="M579.8098 236.2604L670.3705 185.3417 744.0325 232.2897 745.0809 369.3854 653.059 406.7406 576.4746 332.6658Z"/>
<path transform="translate(0,0)" style="stroke-linecap: round; fill: rgb(255,255,255)" vector-effect="non-scaling-stroke" stroke-linecap="round" d="M675.7483 479.3369L785.0201 544.8898 784.2056 537.5886 679.4675 476.1181Z"/>
<path transform="translate(0,0)" style="stroke-linecap: round; fill: rgb(255,255,255)" vector-effect="non-scaling-stroke" stroke-linecap="round" d="M785.0198 544.8901L818.6207 551.3374 912.4855 570.1788 951.0813 548.2851 899.2962 541.0626 798.3561 527.3438Z"/>
<g transform="matrix(1.31499 0.36309 0.36309 -1.31499 675.99381 401.56611)">
<linearGradient id="SVGID_SVGID_137_0" gradientUnits="objectBoundingBox" gradientTransform="matrix(1 0 0 1 0 0)" x1="0" y1="0" x2="0" y2="1">
<stop offset="0%" style="stop-color:rgba(51,65,85,1);"/>
<stop offset="100%" style="stop-color:rgba(30,41,59,1);"/>
</linearGradient>
<path transform=" translate(-625, -225)" style="stroke: rgb(9,10,12); stroke-width: 4; stroke-linecap: round; stroke-linejoin: round; fill: url(#SVGID_SVGID_137_0)" vector-effect="non-scaling-stroke" stroke-linecap="round" d="M 585 235 L 630 190 L 665 210 L 630 260 Z"/>
</g>
<g transform="matrix(1.31499 0.36309 0.36309 -1.31499 734.1378 460.07813)">
<linearGradient id="SVGID_SVGID_138_1" gradientUnits="objectBoundingBox" gradientTransform="matrix(1 0 0 1 0 0)" x1="0" y1="0" x2="0" y2="1">
<stop offset="0%" style="stop-color:rgba(252,209,22,1);"/>
<stop offset="100%" style="stop-color:rgba(229,148,0,1);"/>
</linearGradient>
<path transform=" translate(-677.5, -195)" style="stroke: rgb(9,10,12); stroke-width: 7; stroke-linecap: round; stroke-linejoin: round; fill: url(#SVGID_SVGID_138_1)" vector-effect="non-scaling-stroke" stroke-linecap="round" d="M 615 210 L 640 170 L 730 145 L 740 170 L 665 245 L 635 240 Z"/>
</g>
<g transform="matrix(1.31499 0.36309 0.36309 -1.31499 724.4962 482.18266)">
<linearGradient id="SVGID_SVGID_139_2" gradientUnits="objectBoundingBox" gradientTransform="matrix(1 0 0 1 0 0)" x1="0" y1="0" x2="0" y2="1">
<stop offset="0%" style="stop-color:rgba(255,242,99,1);"/>
<stop offset="100%" style="stop-color:rgba(252,209,22,1);"/>
</linearGradient>
<path transform=" translate(-675, -177.5)" style="stroke-linecap: round; fill: url(#SVGID_SVGID_139_2)" vector-effect="non-scaling-stroke" stroke-linecap="round" d="M 640 170 L 730 145 L 735 158 L 650 185 L 615 210 Z"/>
</g>
<g transform="matrix(1.31499 0.36309 0.36309 -1.31499 771.91423 451.40315)">
<linearGradient id="SVGID_SVGID_140_3" gradientUnits="objectBoundingBox" gradientTransform="matrix(1 0 0 1 0 0)" x1="0" y1="0" x2="0" y2="1">
<stop offset="0%" style="stop-color:rgba(212,118,0,1);"/>
<stop offset="100%" style="stop-color:rgba(147,70,0,1);"/>
</linearGradient>
<path transform=" translate(-702.5, -208.5)" style="stroke-linecap: round; fill: url(#SVGID_SVGID_140_3)" vector-effect="non-scaling-stroke" stroke-linecap="round" d="M 665 245 L 740 170 L 740 173 L 668 247 Z"/>
</g>
<g transform="matrix(1.31499 0.36309 0.36309 -1.31499 705.32586 433.72441)">
<linearGradient id="SVGID_SVGID_141_4" gradientUnits="objectBoundingBox" gradientTransform="matrix(1 0 0 1 0 0)" x1="0" y1="0" x2="0" y2="1">
<stop offset="0%" style="stop-color:rgba(212,118,0,1);"/>
<stop offset="100%" style="stop-color:rgba(147,70,0,1);"/>
</linearGradient>
<circle transform="translate(0,0)" style="stroke: rgb(9,10,12); stroke-width: 2.5; stroke-linecap: round; stroke-linejoin: round; fill: url(#SVGID_SVGID_141_4)" cx="0" cy="0" r="4" vector-effect="non-scaling-stroke"/>
</g>
<g transform="matrix(1.31499 0.36309 0.36309 -1.31499 877.19166 531.42109)">
<linearGradient id="SVGID_SVGID_142_5" gradientUnits="objectBoundingBox" gradientTransform="matrix(1 0 0 1 0 0)" x1="0" y1="0" x2="0" y2="1">
<stop offset="0%" style="stop-color:rgba(226,232,240,1);"/>
<stop offset="100%" style="stop-color:rgba(148,163,184,1);"/>
</linearGradient>
<path transform=" translate(-792.5, -172.5)" style="stroke: rgb(9,10,12); stroke-width: 7; stroke-linecap: round; stroke-linejoin: round; fill: url(#SVGID_SVGID_142_5)" vector-effect="non-scaling-stroke" stroke-linecap="round" d="M 730 145 L 755 147 L 825 152 L 855 182 L 845 200 L 815 195 L 740 170 Z"/>
</g>
<g transform="matrix(1.31499 0.36309 0.36309 -1.31499 882.09342 513.66877)">
<linearGradient id="SVGID_SVGID_143_6" gradientUnits="objectBoundingBox" gradientTransform="matrix(1 0 0 1 0 0)" x1="0" y1="0" x2="0" y2="1">
<stop offset="0%" style="stop-color:rgba(51,65,85,1);"/>
<stop offset="100%" style="stop-color:rgba(30,41,59,1);"/>
</linearGradient>
<path transform=" translate(-792.5, -186)" style="stroke-linecap: round; fill: url(#SVGID_SVGID_143_6)" vector-effect="non-scaling-stroke" stroke-linecap="round" d="M 740 170 L 815 195 L 845 200 L 838 202 L 812 198 Z"/>
</g>
<g transform="matrix(1.30913 -0.38368 0.38368 1.30913 682.63494 203.90183)">
<linearGradient id="SVGID_SVGID_116_7" gradientUnits="objectBoundingBox" gradientTransform="matrix(1 0 0 1 0 0)" x1="0" y1="0" x2="0" y2="1">
<stop offset="0%" style="stop-color:rgba(51,65,85,1);"/>
<stop offset="100%" style="stop-color:rgba(30,41,59,1);"/>
</linearGradient>
<path transform=" translate(-625, -225)" style="stroke: rgb(9,10,12); stroke-width: 4; stroke-linecap: round; stroke-linejoin: round; fill: url(#SVGID_SVGID_116_7)" stroke-linecap="round" d="M 585 235 L 630 190 L 665 210 L 630 260 Z"/>
</g>
<g transform="matrix(1.30913 -0.38368 0.38368 1.30913 739.85411 144.48464)">
<linearGradient id="SVGID_SVGID_117_8" gradientUnits="objectBoundingBox" gradientTransform="matrix(1 0 0 1 0 0)" x1="0" y1="0" x2="0" y2="1">
<stop offset="0%" style="stop-color:rgba(252,209,22,1);"/>
<stop offset="100%" style="stop-color:rgba(229,148,0,1);"/>
</linearGradient>
<path transform=" translate(-677.5, -195)" style="stroke: rgb(9,10,12); stroke-width: 7; stroke-linecap: round; stroke-linejoin: round; fill: url(#SVGID_SVGID_117_8)" stroke-linecap="round" d="M 615 210 L 640 170 L 730 145 L 740 170 L 665 245 L 635 240 Z"/>
</g>
<g transform="matrix(1.30913 -0.38368 0.38368 1.30913 729.86688 122.53399)">
<linearGradient id="SVGID_SVGID_118_9" gradientUnits="objectBoundingBox" gradientTransform="matrix(1 0 0 1 0 0)" x1="0" y1="0" x2="0" y2="1">
<stop offset="0%" style="stop-color:rgba(255,242,99,1);"/>
<stop offset="100%" style="stop-color:rgba(252,209,22,1);"/>
</linearGradient>
<path transform=" translate(-675, -177.5)" style="stroke-linecap: round; fill: url(#SVGID_SVGID_118_9)" stroke-linecap="round" d="M 640 170 L 730 145 L 735 158 L 650 185 L 615 210 Z"/>
</g>
<path transform="translate(0,0)" style="stroke-linecap: round; fill: rgb(255,255,255); opacity: 0.5" stroke-linecap="round" d="M681.1698 126.1442L789.3995 58.8848 788.6996 66.1978 684.9391 129.3043Z"/>
<g transform="matrix(1.30913 -0.38368 0.38368 1.30913 777.76213 152.56597)">
<linearGradient id="SVGID_SVGID_119_10" gradientUnits="objectBoundingBox" gradientTransform="matrix(1 0 0 1 0 0)" x1="0" y1="0" x2="0" y2="1">
<stop offset="0%" style="stop-color:rgba(212,118,0,1);"/>
<stop offset="100%" style="stop-color:rgba(147,70,0,1);"/>
</linearGradient>
<path transform=" translate(-702.5, -208.5)" style="stroke-linecap: round; fill: url(#SVGID_SVGID_119_10)" stroke-linecap="round" d="M 665 245 L 740 170 L 740 173 L 668 247 Z"/>
</g>
<g transform="matrix(1.30913 -0.38368 0.38368 1.30913 711.45901 171.28721)">
<linearGradient id="SVGID_SVGID_120_11" gradientUnits="objectBoundingBox" gradientTransform="matrix(1 0 0 1 0 0)" x1="0" y1="0" x2="0" y2="1">
<stop offset="0%" style="stop-color:rgba(212,118,0,1);"/>
<stop offset="100%" style="stop-color:rgba(147,70,0,1);"/>
</linearGradient>
<circle transform="translate(0,0)" style="stroke: rgb(9,10,12); stroke-width: 2.5; stroke-linecap: round; stroke-linejoin: round; fill: url(#SVGID_SVGID_120_11)" cx="0" cy="0" r="4"/>
</g>
<g transform="matrix(1.30913 -0.38368 0.38368 1.30913 881.77176 70.906)">
<linearGradient id="SVGID_SVGID_121_12" gradientUnits="objectBoundingBox" gradientTransform="matrix(1 0 0 1 0 0)" x1="0" y1="0" x2="0" y2="1">
<stop offset="0%" style="stop-color:rgba(226,232,240,1);"/>
<stop offset="100%" style="stop-color:rgba(148,163,184,1);"/>
</linearGradient>
<path transform=" translate(-792.5, -172.5)" style="stroke: rgb(9,10,12); stroke-width: 7; stroke-linecap: round; stroke-linejoin: round; fill: url(#SVGID_SVGID_121_12)" stroke-linecap="round" d="M 730 145 L 755 147 L 825 152 L 855 182 L 845 200 L 815 195 L 740 170 Z"/>
</g>
<path transform="translate(0,0)" style="stroke-linecap: round; fill: rgb(255,255,255); opacity: 0.6" stroke-linecap="round" d="M789.3999 58.8849L822.8955 51.9111 916.453 31.5992 955.3877 52.8845 903.7223 60.9187 803.0099 76.2197Z"/>
<g transform="matrix(1.30913 -0.38368 0.38368 1.30913 886.95143 88.57931)">
<linearGradient id="SVGID_SVGID_122_13" gradientUnits="objectBoundingBox" gradientTransform="matrix(1 0 0 1 0 0)" x1="0" y1="0" x2="0" y2="1">
<stop offset="0%" style="stop-color:rgba(51,65,85,1);"/>
<stop offset="100%" style="stop-color:rgba(30,41,59,1);"/>
</linearGradient>
<path transform=" translate(-792.5, -186)" style="stroke-linecap: round; fill: url(#SVGID_SVGID_122_13)" stroke-linecap="round" d="M 740 170 L 815 195 L 845 200 L 838 202 L 812 198 Z"/>
</g>
<g transform="matrix(1.36419 0 0 1.36419 56.64806 319.9625)">
<linearGradient id="SVGID_SVGID_100_14" gradientUnits="objectBoundingBox" gradientTransform="matrix(1 0 0 1 0 0)" x1="0" y1="0" x2="0" y2="1">
<stop offset="0%" style="stop-color:rgba(51,65,85,1);"/>
<stop offset="100%" style="stop-color:rgba(30,41,59,1);"/>
</linearGradient>
<path transform=" translate(-137.5, -292.5)" style="stroke: rgb(9,10,12); stroke-width: 7; stroke-linecap: round; stroke-linejoin: round; fill: url(#SVGID_SVGID_100_14)" stroke-linecap="round" d="M 120 240 L 155 240 L 155 345 L 120 345 Z"/>
</g>
<path transform="translate(0,0)" style="stroke-linecap: round; fill: rgb(71,85,105)" stroke-linecap="round" d="M32.7747 248.3424L80.5214 248.3424 80.5214 289.2681 32.7747 282.4472Z"/>
<g transform="matrix(1.36419 0 0 1.36419 63.46902 319.9625)">
<linearGradient id="SVGID_SVGID_101_15" gradientUnits="objectBoundingBox" gradientTransform="matrix(1 0 0 1 0 0)" x1="0" y1="0" x2="1" y2="1">
<stop offset="0%" style="stop-color:rgba(100,116,139,1);"/>
<stop offset="100%" style="stop-color:rgba(71,85,105,1);"/>
</linearGradient>
<path transform=" translate(-142.5, -292.5)" style="stroke: rgb(9,10,12); stroke-width: 7; stroke-linecap: round; stroke-linejoin: round; fill: url(#SVGID_SVGID_101_15)" stroke-linecap="round" d="M 130 225 L 155 225 L 155 360 L 130 360 Z"/>
</g>
<path transform="translate(0,0)" style="stroke-linecap: round; fill: rgb(148,163,184)" stroke-linecap="round" d="M46.4166 227.8795L80.5214 227.8795 80.5214 275.6262 46.4166 268.8052Z"/>
<path transform="translate(0,0)" style="stroke-linecap: round; fill: rgb(30,41,59)" stroke-linecap="round" d="M46.4166 371.1198L80.5214 377.9407 80.5214 412.0455 46.4166 412.0455Z"/>
<g transform="matrix(1.36419 0 0 1.36419 97.57385 319.9625)">
<linearGradient id="SVGID_SVGID_102_16" gradientUnits="objectBoundingBox" gradientTransform="matrix(1 0 0 1 0 0)" x1="0" y1="0" x2="0" y2="1">
<stop offset="0%" style="stop-color:rgba(51,65,85,1);"/>
<stop offset="100%" style="stop-color:rgba(30,41,59,1);"/>
</linearGradient>
<path transform=" translate(-167.5, -292.5)" style="stroke: rgb(9,10,12); stroke-width: 7; stroke-linecap: round; stroke-linejoin: round; fill: url(#SVGID_SVGID_102_16)" stroke-linecap="round" d="M 155 215 L 180 215 L 180 370 L 155 370 Z"/>
</g>
<path transform="translate(0,0)" style="stroke-linecap: round; fill: rgb(100,116,139)" stroke-linecap="round" d="M80.5215 214.2376L114.6262 214.2376 114.6262 261.9842 80.5215 255.1633Z"/>
<g transform="matrix(1.36419 0 0 1.36419 223.76171 306.32057)">
<linearGradient id="SVGID_SVGID_103_17" gradientUnits="objectBoundingBox" gradientTransform="matrix(1 0 0 1 0 0)" x1="0" y1="0" x2="0" y2="1">
<stop offset="0%" style="stop-color:rgba(252,209,22,1);"/>
<stop offset="100%" style="stop-color:rgba(229,148,0,1);"/>
</linearGradient>
<path transform=" translate(-260, -282.5)" style="stroke: rgb(9,10,12); stroke-width: 7; stroke-linecap: round; stroke-linejoin: round; fill: url(#SVGID_SVGID_103_17)" stroke-linecap="round" d="M 180 195 L 325 195 L 340 210 L 340 355 L 325 370 L 180 370 Z"/>
</g>
<g transform="matrix(1.36419 0 0 1.36419 218.98703 241.52139)">
<linearGradient id="SVGID_SVGID_104_18" gradientUnits="objectBoundingBox" gradientTransform="matrix(1 0 0 1 0 0)" x1="0" y1="0" x2="0" y2="1">
<stop offset="0%" style="stop-color:rgba(255,242,99,1);"/>
<stop offset="100%" style="stop-color:rgba(252,209,22,1);"/>
</linearGradient>
<path transform=" translate(-256.5, -235)" style="stroke-linecap: round; fill: url(#SVGID_SVGID_104_18)" stroke-linecap="round" d="M 180 195 L 325 195 L 333 203 L 333 260 L 180 275 Z"/>
</g>
<path transform="translate(0,0)" style="stroke-linecap: round; fill: rgb(255,255,255); opacity: 0.4" stroke-linecap="round" d="M114.6265 186.9537L312.434 186.9537 316.5266 193.7747 114.6265 214.2375Z"/>
<g transform="matrix(1.36419 0 0 1.36419 223.76171 381.35119)">
<linearGradient id="SVGID_SVGID_105_19" gradientUnits="objectBoundingBox" gradientTransform="matrix(1 0 0 1 0 0)" x1="0" y1="0" x2="0" y2="1">
<stop offset="0%" style="stop-color:rgba(212,118,0,1);"/>
<stop offset="100%" style="stop-color:rgba(147,70,0,1);"/>
</linearGradient>
<path transform=" translate(-260, -337.5)" style="stroke-linecap: round; fill: url(#SVGID_SVGID_105_19)" stroke-linecap="round" d="M 180 315 L 337 305 L 340 355 L 325 370 L 180 370 Z"/>
</g>
<path transform="translate(0,0)" style="stroke-linecap: round; fill: rgb(84,41,0)" stroke-linecap="round" d="M114.6265 391.5827L316.5266 384.7617 312.434 425.6874 114.6265 425.6874Z"/>
<path transform="translate(0,0)" style="stroke: rgb(9,10,12); stroke-width: 4; stroke-linecap: round; stroke-linejoin: round; fill: none" stroke-linecap="round" d="M114.6265 371.1198L162.3732 371.1198 182.836 391.5826 332.8969 391.5826"/>
<path transform="translate(0,0)" style="stroke: rgb(9,10,12); stroke-width: 4; stroke-linecap: round; stroke-linejoin: round; fill: none" stroke-linecap="round" d="M114.6263 200.5956L148.7311 200.5956 155.552 186.9537"/>
<path transform="translate(0,0)" style="stroke: rgb(9,10,12); stroke-width: 4; stroke-linecap: round; stroke-linejoin: round; fill: none" stroke-linecap="round" d="M298.7924 186.9537L305.6133 214.2375 332.8971 214.2375"/>
<g transform="matrix(1.36419 0 0 1.36419 169.19399 309.73105)">
<linearGradient id="SVGID_SVGID_106_20" gradientUnits="objectBoundingBox" gradientTransform="matrix(1 0 0 1 0 0)" x1="0" y1="0" x2="0" y2="1">
<stop offset="0%" style="stop-color:rgba(51,65,85,1);"/>
<stop offset="100%" style="stop-color:rgba(30,41,59,1);"/>
</linearGradient>
<circle transform="translate(0,0)" style="stroke: rgb(9,10,12); stroke-width: 4; stroke-linecap: round; stroke-linejoin: round; fill: url(#SVGID_SVGID_106_20)" cx="0" cy="0" r="24"/>
</g>
<g transform="matrix(1.36419 0 0 1.36419 169.19399 309.73105)">
<linearGradient id="SVGID_SVGID_107_21" gradientUnits="objectBoundingBox" gradientTransform="matrix(1 0 0 1 0 0)" x1="0" y1="0" x2="0" y2="1">
<stop offset="0%" style="stop-color:rgba(226,232,240,1);"/>
<stop offset="100%" style="stop-color:rgba(148,163,184,1);"/>
</linearGradient>
<circle transform="translate(0,0)" style="stroke: rgb(9,10,12); stroke-width: 2.5; stroke-linecap: round; stroke-linejoin: round; fill: url(#SVGID_SVGID_107_21)" cx="0" cy="0" r="15"/>
</g>
<circle transform="translate(0,0)" style="fill: rgb(255,255,255); opacity: 0.7" cx="165.1014" cy="305.6385" r="8.1851"/>
<g transform="matrix(1.36419 0 0 1.36419 356.77054 306.32057)">
<linearGradient id="SVGID_SVGID_108_22" gradientUnits="objectBoundingBox" gradientTransform="matrix(1 0 0 1 0 0)" x1="0" y1="0" x2="0" y2="1">
<stop offset="0%" style="stop-color:rgba(51,65,85,1);"/>
<stop offset="100%" style="stop-color:rgba(30,41,59,1);"/>
</linearGradient>
<path transform=" translate(-357.5, -282.5)" style="stroke: rgb(9,10,12); stroke-width: 7; stroke-linecap: round; stroke-linejoin: round; fill: url(#SVGID_SVGID_108_22)" stroke-linecap="round" d="M 340 210 L 375 225 L 375 340 L 340 355 Z"/>
</g>
<path transform="translate(0,0)" style="stroke-linecap: round; fill: rgb(100,116,139)" stroke-linecap="round" d="M332.8972 207.4166L380.6439 227.8795 380.6439 268.8052 332.8972 248.3423Z"/>
<g transform="matrix(1.36419 0 0 1.36419 404.51729 306.32057)">
<linearGradient id="SVGID_SVGID_109_23" gradientUnits="objectBoundingBox" gradientTransform="matrix(1 0 0 1 0 0)" x1="0" y1="0" x2="1" y2="1">
<stop offset="0%" style="stop-color:rgba(100,116,139,1);"/>
<stop offset="100%" style="stop-color:rgba(71,85,105,1);"/>
</linearGradient>
<path transform=" translate(-392.5, -282.5)" style="stroke: rgb(9,10,12); stroke-width: 7; stroke-linecap: round; stroke-linejoin: round; fill: url(#SVGID_SVGID_109_23)" stroke-linecap="round" d="M 375 235 L 410 245 L 410 320 L 375 330 Z"/>
</g>
<path transform="translate(0,0)" style="stroke-linecap: round; fill: rgb(148,163,184)" stroke-linecap="round" d="M380.644 241.5214L428.3906 255.1633 428.3906 282.4471 380.644 268.8052Z"/>
<path transform="translate(0,0)" style="stroke-linecap: round; fill: rgb(30,41,59)" stroke-linecap="round" d="M380.644 343.8359L428.3906 337.015 428.3906 357.4778 380.644 371.1197Z"/>
<g transform="matrix(1.36419 0 0 1.36419 510.24226 306.32057)">
<linearGradient id="SVGID_SVGID_110_24" gradientUnits="objectBoundingBox" gradientTransform="matrix(1 0 0 1 0 0)" x1="0" y1="0" x2="0" y2="1">
<stop offset="0%" style="stop-color:rgba(226,232,240,1);"/>
<stop offset="100%" style="stop-color:rgba(148,163,184,1);"/>
</linearGradient>
<path transform=" translate(-470, -282.5)" style="stroke: rgb(9,10,12); stroke-width: 7; stroke-linecap: round; stroke-linejoin: round; fill: url(#SVGID_SVGID_110_24)" stroke-linecap="round" d="M 410 260 L 530 260 L 530 305 L 410 305 Z"/>
</g>
<path transform="translate(0,0)" style="stroke-linecap: round; fill: rgb(255,255,255); opacity: 0.5" stroke-linecap="round" d="M428.3909 275.6262L592.0937 275.6262 592.0937 296.0891 428.3909 296.0891Z"/>
<path transform="translate(0,0)" style="stroke-linecap: round; fill: rgb(71,85,105)" stroke-linecap="round" d="M428.3909 323.373L592.0937 323.373 592.0937 337.0149 428.3909 337.0149Z"/>
<g transform="matrix(1.36419 0 0 1.36419 496.60033 306.32057)">
<linearGradient id="SVGID_SVGID_111_25" gradientUnits="objectBoundingBox" gradientTransform="matrix(1 0 0 1 0 0)" x1="0" y1="0" x2="0" y2="1">
<stop offset="0%" style="stop-color:rgba(51,65,85,1);"/>
<stop offset="100%" style="stop-color:rgba(30,41,59,1);"/>
</linearGradient>
<path transform=" translate(-460, -282.5)" style="stroke: rgb(9,10,12); stroke-width: 7; stroke-linecap: round; stroke-linejoin: round; fill: url(#SVGID_SVGID_111_25)" stroke-linecap="round" d="M 445 252 L 475 252 L 475 313 L 445 313 Z"/>
</g>
<path transform="translate(0,0)" style="stroke-linecap: round; fill: rgb(148,163,184)" stroke-linecap="round" d="M476.1375 264.7127L517.0632 264.7127 517.0632 289.2681 476.1375 282.4472Z"/>
<g transform="matrix(1.36419 0 0 1.36419 578.45191 306.32057)">
<linearGradient id="SVGID_SVGID_112_26" gradientUnits="objectBoundingBox" gradientTransform="matrix(1 0 0 1 0 0)" x1="0" y1="0" x2="1" y2="1">
<stop offset="0%" style="stop-color:rgba(100,116,139,1);"/>
<stop offset="100%" style="stop-color:rgba(71,85,105,1);"/>
</linearGradient>
<path transform=" translate(-520, -282.5)" style="stroke: rgb(9,10,12); stroke-width: 7; stroke-linecap: round; stroke-linejoin: round; fill: url(#SVGID_SVGID_112_26)" stroke-linecap="round" d="M 505 252 L 535 252 L 535 313 L 505 313 Z"/>
</g>
<path transform="translate(0,0)" style="stroke-linecap: round; fill: rgb(203,213,225)" stroke-linecap="round" d="M557.9891 264.7127L598.9148 264.7127 598.9148 289.2681 557.9891 282.4472Z"/>
<g transform="matrix(1.36419 0 0 1.36419 667.12447 299.4996)">
<linearGradient id="SVGID_SVGID_113_27" gradientUnits="objectBoundingBox" gradientTransform="matrix(1 0 0 1 0 0)" x1="0" y1="0" x2="0" y2="1">
<stop offset="0%" style="stop-color:rgba(51,65,85,1);"/>
<stop offset="100%" style="stop-color:rgba(30,41,59,1);"/>
</linearGradient>
<path transform=" translate(-585, -277.5)" style="stroke: rgb(9,10,12); stroke-width: 7; stroke-linecap: round; stroke-linejoin: round; fill: url(#SVGID_SVGID_113_27)" stroke-linecap="round" d="M 535 240 L 595 230 L 635 275 L 595 325 L 535 315 Z"/>
</g>
<g transform="matrix(1.36419 0 0 1.36419 667.12447 300.1817)">
<linearGradient id="SVGID_SVGID_114_28" gradientUnits="objectBoundingBox" gradientTransform="matrix(1 0 0 1 0 0)" x1="0" y1="0" x2="1" y2="1">
<stop offset="0%" style="stop-color:rgba(100,116,139,1);"/>
<stop offset="100%" style="stop-color:rgba(71,85,105,1);"/>
</linearGradient>
<circle transform="translate(0,0)" style="stroke: rgb(9,10,12); stroke-width: 4; stroke-linecap: round; stroke-linejoin: round; fill: url(#SVGID_SVGID_114_28)" cx="0" cy="0" r="32"/>
</g>
<g transform="matrix(1.36419 0 0 1.36419 667.12447 300.1817)">
<linearGradient id="SVGID_SVGID_115_29" gradientUnits="objectBoundingBox" gradientTransform="matrix(1 0 0 1 0 0)" x1="0" y1="0" x2="0" y2="1">
<stop offset="0%" style="stop-color:rgba(51,65,85,1);"/>
<stop offset="100%" style="stop-color:rgba(30,41,59,1);"/>
</linearGradient>
<circle transform="translate(0,0)" style="stroke: rgb(9,10,12); stroke-width: 4; stroke-linecap: round; stroke-linejoin: round; fill: url(#SVGID_SVGID_115_29)" cx="0" cy="0" r="22"/>
</g>
<path transform="translate(0,0)" style="stroke-linecap: round; fill: rgb(148,163,184)" stroke-linecap="round" d="M643.9332 278.3546C649.6098 270.9035 658.4396 266.5302 667.8066 266.5302 677.1735 266.5302 686.0034 270.9035 691.6799 278.3546L684.8589 285.1755C680.717 279.9916 674.442 276.9734 667.8066 276.9734 661.1711 276.9734 654.8961 279.9916 650.7542 285.1755Z"/>
</svg>