<svg xmlns="http://www.w3.org/2000/svg" xmlns:xlink="http://www.w3.org/1999/xlink" version="1.1" width="1000" height="600" viewBox="0 0 1000 600">
<desc>Created with SVGMaker Editor 3.0.0</desc>
<defs>
</defs>
<g transform="matrix(1.36419 0 0 1.36419 56.64806 319.9625)">
<linearGradient id="SVGID_141" gradientUnits="objectBoundingBox" gradientTransform="matrix(1 0 0 1 0 0)" x1="0" y1="0" x2="0" y2="1">
<stop offset="0%" style="stop-color:rgba(51,65,85,1);"/>
<stop offset="100%" style="stop-color:rgba(30,41,59,1);"/>
</linearGradient>
<path transform=" translate(-137.5, -292.5)" style="stroke: rgb(9,10,12); stroke-width: 7; stroke-linecap: round; stroke-linejoin: round; fill: url(#SVGID_141)" stroke-linecap="round" d="M 120 240 L 155 240 L 155 345 L 120 345 Z"/>
</g>
<path transform="translate(0,0)" style="stroke-linecap: round; fill: rgb(71,85,105)" stroke-linecap="round" d="M 32.7747 248.3424 L 80.5214 248.3424 L 80.5214 289.2681 L 32.7747 282.4472 Z"/>
<g transform="matrix(1.36419 0 0 1.36419 63.46902 319.9625)">
<linearGradient id="SVGID_142" gradientUnits="objectBoundingBox" gradientTransform="matrix(1 0 0 1 0 0)" x1="0" y1="0" x2="1" y2="1">
<stop offset="0%" style="stop-color:rgba(100,116,139,1);"/>
<stop offset="100%" style="stop-color:rgba(71,85,105,1);"/>
</linearGradient>
<path transform=" translate(-142.5, -292.5)" style="stroke: rgb(9,10,12); stroke-width: 7; stroke-linecap: round; stroke-linejoin: round; fill: url(#SVGID_142)" stroke-linecap="round" d="M 130 225 L 155 225 L 155 360 L 130 360 Z"/>
</g>
<path transform="translate(0,0)" style="stroke-linecap: round; fill: rgb(148,163,184)" stroke-linecap="round" d="M 46.4166 227.8795 L 80.5214 227.8795 L 80.5214 275.6262 L 46.4166 268.8052 Z"/>
<path transform="translate(0,0)" style="stroke-linecap: round; fill: rgb(30,41,59)" stroke-linecap="round" d="M 46.4166 371.1198 L 80.5214 377.9407 L 80.5214 412.0455 L 46.4166 412.0455 Z"/>
<g transform="matrix(1.36419 0 0 1.36419 97.57385 319.9625)">
<linearGradient id="SVGID_143" gradientUnits="objectBoundingBox" gradientTransform="matrix(1 0 0 1 0 0)" x1="0" y1="0" x2="0" y2="1">
<stop offset="0%" style="stop-color:rgba(51,65,85,1);"/>
<stop offset="100%" style="stop-color:rgba(30,41,59,1);"/>
</linearGradient>
<path transform=" translate(-167.5, -292.5)" style="stroke: rgb(9,10,12); stroke-width: 7; stroke-linecap: round; stroke-linejoin: round; fill: url(#SVGID_143)" stroke-linecap="round" d="M 155 215 L 180 215 L 180 370 L 155 370 Z"/>
</g>
<path transform="translate(0,0)" style="stroke-linecap: round; fill: rgb(100,116,139)" stroke-linecap="round" d="M 80.5215 214.2376 L 114.6262 214.2376 L 114.6262 261.9842 L 80.5215 255.1633 Z"/>
<g transform="matrix(1.36419 0 0 1.36419 223.76171 306.32057)">
<linearGradient id="SVGID_144" gradientUnits="objectBoundingBox" gradientTransform="matrix(1 0 0 1 0 0)" x1="0" y1="0" x2="0" y2="1">
<stop offset="0%" style="stop-color:rgba(252,209,22,1);"/>
<stop offset="100%" style="stop-color:rgba(229,148,0,1);"/>
</linearGradient>
<path transform=" translate(-260, -282.5)" style="stroke: rgb(9,10,12); stroke-width: 7; stroke-linecap: round; stroke-linejoin: round; fill: url(#SVGID_144)" stroke-linecap="round" d="M 180 195 L 325 195 L 340 210 L 340 355 L 325 370 L 180 370 Z"/>
</g>
<g transform="matrix(1.36419 0 0 1.36419 218.98703 241.52139)">
<linearGradient id="SVGID_145" gradientUnits="objectBoundingBox" gradientTransform="matrix(1 0 0 1 0 0)" x1="0" y1="0" x2="0" y2="1">
<stop offset="0%" style="stop-color:rgba(255,242,99,1);"/>
<stop offset="100%" style="stop-color:rgba(252,209,22,1);"/>
</linearGradient>
<path transform=" translate(-256.5, -235)" style="stroke-linecap: round; fill: url(#SVGID_145)" stroke-linecap="round" d="M 180 195 L 325 195 L 333 203 L 333 260 L 180 275 Z"/>
</g>
<path transform="translate(0,0)" style="stroke-linecap: round; fill: rgb(255,255,255); opacity: 0.4" stroke-linecap="round" d="M 114.6265 186.9537 L 312.434 186.9537 L 316.5266 193.7747 L 114.6265 214.2375 Z"/>
<g transform="matrix(1.36419 0 0 1.36419 223.76171 381.35119)">
<linearGradient id="SVGID_146" gradientUnits="objectBoundingBox" gradientTransform="matrix(1 0 0 1 0 0)" x1="0" y1="0" x2="0" y2="1">
<stop offset="0%" style="stop-color:rgba(212,118,0,1);"/>
<stop offset="100%" style="stop-color:rgba(147,70,0,1);"/>
</linearGradient>
<path transform=" translate(-260, -337.5)" style="stroke-linecap: round; fill: url(#SVGID_146)" stroke-linecap="round" d="M 180 315 L 337 305 L 340 355 L 325 370 L 180 370 Z"/>
</g>
<path transform="translate(0,0)" style="stroke-linecap: round; fill: rgb(84,41,0)" stroke-linecap="round" d="M 114.6265 391.5827 L 316.5266 384.7617 L 312.434 425.6874 L 114.6265 425.6874 Z"/>
<path transform="translate(0,0)" style="stroke: rgb(9,10,12); stroke-width: 4; stroke-linecap: round; stroke-linejoin: round; fill: none" stroke-linecap="round" d="M 114.6265 371.1198 L 162.3732 371.1198 L 182.836 391.5826 L 332.8969 391.5826"/>
<path transform="translate(0,0)" style="stroke: rgb(9,10,12); stroke-width: 4; stroke-linecap: round; stroke-linejoin: round; fill: none" stroke-linecap="round" d="M 114.6263 200.5956 L 148.7311 200.5956 L 155.552 186.9537"/>
<path transform="translate(0,0)" style="stroke: rgb(9,10,12); stroke-width: 4; stroke-linecap: round; stroke-linejoin: round; fill: none" stroke-linecap="round" d="M 298.7924 186.9537 L 305.6133 214.2375 L 332.8971 214.2375"/>
<g transform="matrix(1.36419 0 0 1.36419 169.19399 309.73105)">
<linearGradient id="SVGID_147" gradientUnits="objectBoundingBox" gradientTransform="matrix(1 0 0 1 0 0)" x1="0" y1="0" x2="0" y2="1">
<stop offset="0%" style="stop-color:rgba(51,65,85,1);"/>
<stop offset="100%" style="stop-color:rgba(30,41,59,1);"/>
</linearGradient>
<circle transform="translate(0,0)" style="stroke: rgb(9,10,12); stroke-width: 4; stroke-linecap: round; stroke-linejoin: round; fill: url(#SVGID_147)" cx="0" cy="0" r="24"/>
</g>
<g transform="matrix(1.36419 0 0 1.36419 169.19399 309.73105)">
<linearGradient id="SVGID_148" gradientUnits="objectBoundingBox" gradientTransform="matrix(1 0 0 1 0 0)" x1="0" y1="0" x2="0" y2="1">
<stop offset="0%" style="stop-color:rgba(226,232,240,1);"/>
<stop offset="100%" style="stop-color:rgba(148,163,184,1);"/>
</linearGradient>
<circle transform="translate(0,0)" style="stroke: rgb(9,10,12); stroke-width: 2.5; stroke-linecap: round; stroke-linejoin: round; fill: url(#SVGID_148)" cx="0" cy="0" r="15"/>
</g>
<circle transform="translate(0,0)" style="fill: rgb(255,255,255); opacity: 0.7" cx="165.1014" cy="305.6385" r="8.1851"/>
<g transform="matrix(1.36419 0 0 1.36419 356.77054 306.32057)">
<linearGradient id="SVGID_149" gradientUnits="objectBoundingBox" gradientTransform="matrix(1 0 0 1 0 0)" x1="0" y1="0" x2="0" y2="1">
<stop offset="0%" style="stop-color:rgba(51,65,85,1);"/>
<stop offset="100%" style="stop-color:rgba(30,41,59,1);"/>
</linearGradient>
<path transform=" translate(-357.5, -282.5)" style="stroke: rgb(9,10,12); stroke-width: 7; stroke-linecap: round; stroke-linejoin: round; fill: url(#SVGID_149)" stroke-linecap="round" d="M 340 210 L 375 225 L 375 340 L 340 355 Z"/>
</g>
<path transform="translate(0,0)" style="stroke-linecap: round; fill: rgb(100,116,139)" stroke-linecap="round" d="M 332.8972 207.4166 L 380.6439 227.8795 L 380.6439 268.8052 L 332.8972 248.3423 Z"/>
<g transform="matrix(1.36419 0 0 1.36419 404.51729 306.32057)">
<linearGradient id="SVGID_150" gradientUnits="objectBoundingBox" gradientTransform="matrix(1 0 0 1 0 0)" x1="0" y1="0" x2="1" y2="1">
<stop offset="0%" style="stop-color:rgba(100,116,139,1);"/>
<stop offset="100%" style="stop-color:rgba(71,85,105,1);"/>
</linearGradient>
<path transform=" translate(-392.5, -282.5)" style="stroke: rgb(9,10,12); stroke-width: 7; stroke-linecap: round; stroke-linejoin: round; fill: url(#SVGID_150)" stroke-linecap="round" d="M 375 235 L 410 245 L 410 320 L 375 330 Z"/>
</g>
<path transform="translate(0,0)" style="stroke-linecap: round; fill: rgb(148,163,184)" stroke-linecap="round" d="M 380.644 241.5214 L 428.3906 255.1633 L 428.3906 282.4471 L 380.644 268.8052 Z"/>
<path transform="translate(0,0)" style="stroke-linecap: round; fill: rgb(30,41,59)" stroke-linecap="round" d="M 380.644 343.8359 L 428.3906 337.015 L 428.3906 357.4778 L 380.644 371.1197 Z"/>
</svg>