<?xml version="1.0" encoding="UTF-8" standalone="no"?><!DOCTYPE svg PUBLIC "-//W3C//DTD SVG 1.1//EN" "http://www.w3.org/Graphics/SVG/1.1/DTD/svg11.dtd"><svg xmlns="http://www.w3.org/2000/svg" xmlns:xlink="http://www.w3.org/1999/xlink" version="1.1" width="800" height="800" viewBox="0 0 24 24">
<desc>Created with SVGMaker Editor 3.0.0</desc>
<defs>
</defs>
<path transform="translate(0,0)" style="stroke: rgb(255,74,32); stroke-width: 1.5; fill: rgb(255,74,32)" stroke-linecap="round" d="M18.1286 2.996C18.2694 2.639 18.7746 2.639 18.9154 2.996L19.4115 4.2539C19.4545 4.3628 19.5407 4.4491 19.6497 4.4921L20.9076 4.9882C21.2646 5.129 21.2646 5.6342 20.9076 5.775L19.6497 6.2711C19.5407 6.3141 19.4545 6.4004 19.4115 6.5094L18.9154 7.7673C18.7746 8.1242 18.2694 8.1242 18.1286 7.7673L17.6325 6.5094C17.5895 6.4004 17.5032 6.3141 17.3942 6.2711L16.1364 5.775C15.7794 5.6342 15.7794 5.129 16.1364 4.9882L17.3942 4.4921C17.5032 4.4491 17.5895 4.3628 17.6325 4.2539L18.1286 2.996Z"/>
<path transform="translate(0,0)" style="stroke: rgb(232,237,254); stroke-width: 1.5; stroke-linecap: round; fill: rgb(232,237,254)" stroke-linecap="round" d="M 17 7 L 15 9"/>
<path transform="translate(0,0)" style="stroke: rgb(234,238,255); stroke-width: 1.5; fill: none" stroke-linecap="round" d="M 17.9811 2.35316 C 18.1668 1.88228 18.8332 1.88228 19.0189 2.35316 L 19.6733 4.01242 C 19.73 4.15618 19.8438 4.26998 19.9876 4.32668 L 21.6468 4.98108 C 22.1177 5.16679 22.1177 5.83321 21.6468 6.01892 L 19.9876 6.67332 C 19.8438 6.73002 19.73 6.84382 19.6733 6.98758 L 19.0189 8.64684 C 18.8332 9.11772 18.1668 9.11772 17.9811 8.64684 L 17.3267 6.98758 C 17.27 6.84382 17.1562 6.73002 17.0124 6.67332 L 15.3532 6.01892 C 14.8823 5.83321 14.8823 5.16679 15.3532 4.98108 L 17.0124 4.32668 C 17.1562 4.26998 17.27 4.15618 17.3267 4.01242 L 17.9811 2.35316 Z"/>
<circle transform="translate(0,0)" style="stroke: rgb(117,102,207); stroke-width: 5; fill: rgb(117,102,207)" cx="9.5058" cy="14.4393" r="4.9372" vector-effect="non-scaling-stroke"/>
<path transform="translate(0,0)" style="stroke: rgb(232,237,254); stroke-width: 1.5; stroke-linecap: round; fill: none" stroke-linecap="round" d="M 5.75 8.00337 C 6.85315 7.36523 8.13392 7 9.5 7 C 13.6421 7 17 10.3579 17 14.5 C 17 18.6421 13.6421 22 9.5 22 C 5.35786 22 2 18.6421 2 14.5 C 2 13.1339 2.36523 11.8532 3.00337 10.75"/>
<path transform="translate(0,0)" style="stroke: rgb(255,255,255); stroke-width: 1.5; stroke-linecap: round; fill: rgb(235,236,238)" stroke-linecap="round" d="M 10 16 L 12 16"/>
<path transform="translate(0,0)" style="fill: rgb(235,236,238)" stroke-linecap="round" d="M 14 12.5 C 14 13.3284 13.5523 14 13 14 C 12.4477 14 12 13.3284 12 12.5 C 12 11.6716 12.4477 11 13 11 C 13.5523 11 14 11.6716 14 12.5 Z"/>
<ellipse transform="translate(0,0)" style="fill: rgb(235,236,238)" cx="9" cy="12.5" rx="1" ry="1.5"/>
</svg>