<?xml version="1.0" encoding="UTF-8" standalone="no"?><!DOCTYPE svg PUBLIC "-//W3C//DTD SVG 1.1//EN" "http://www.w3.org/Graphics/SVG/1.1/DTD/svg11.dtd"><svg xmlns="http://www.w3.org/2000/svg" xmlns:xlink="http://www.w3.org/1999/xlink" version="1.1" width="800" height="800" viewBox="0 0 56 56">
<desc>Created with SVGMaker Editor 3.0.0</desc>
<defs>
</defs>
<path transform="translate(0,0)" style="stroke-linecap: round; fill: rgb(50,50,50)" stroke-linecap="round" d="M13.6866 52.2271C15.5515 52.2271 16.8311 51.5465 17.9747 50.1307L20.4386 47.1494C20.7926 46.7274 21.201 46.5233 21.6093 46.5233L34.6916 46.5233C35.0998 46.5233 35.5082 46.7274 35.8486 47.1494L38.3126 50.1307C39.4696 51.5465 40.7356 52.2271 42.6144 52.2271 45.7179 52.2271 47.8008 50.1579 47.8008 46.9725 47.8008 45.6111 47.474 44.0457 46.9569 42.2896 46.1264 39.499 44.6699 35.7009 43.2676 32.7605 42.1106 30.3101 41.5115 29.1939 38.6257 28.5404 36.0527 27.9551 32.4997 27.5603 28.1436 27.5603 23.7874 27.5603 20.2344 27.9551 17.6752 28.5404 14.7892 29.1939 14.1903 30.3101 13.0195 32.7605 11.631 35.7009 10.1744 39.499 9.344 42.2896 8.8131 44.0457 8.5 45.6111 8.5 46.9725 8.5 50.1579 10.5692 52.2271 13.6866 52.2271ZM17.1307 37.1575C17.1307 36.4769 17.539 36.0548 18.2606 36.0548L20.6973 36.0548 20.6973 33.6725C20.6973 32.9782 21.1057 32.5563 21.7863 32.5563 22.4534 32.5563 22.8482 32.9782 22.8482 33.6725L22.8482 36.0548 25.1623 36.0548C25.9246 36.0548 26.3739 36.4769 26.3739 37.1575 26.3739 37.8654 25.9246 38.301 25.1623 38.301L22.8482 38.301 22.8482 40.6832C22.8482 41.3775 22.4534 41.8131 21.7863 41.8131 21.1057 41.8131 20.6973 41.3775 20.6973 40.6832L20.6973 38.301 18.2606 38.301C17.539 38.301 17.1307 37.8654 17.1307 37.1575ZM34.5145 35.0339C34.5145 33.9176 35.3858 33.0599 36.4747 33.0599 37.5774 33.0599 38.435 33.9176 38.435 35.0339 38.435 36.1365 37.5774 36.9805 36.4747 36.9805 35.3858 36.9805 34.5145 36.1365 34.5145 35.0339ZM30.5122 39.0633C30.5122 37.9471 31.3699 37.0894 32.4726 37.0894 33.5752 37.0894 34.4192 37.9471 34.4192 39.0633 34.4192 40.1659 33.5752 41.0236 32.4726 41.0236 31.3699 41.0236 30.5122 40.1659 30.5122 39.0633Z"/>
<path transform="translate(0,0)" style="stroke-width: 0; stroke-linecap: round; fill: rgb(150,232,242); fill-opacity: 0.55" vector-effect="non-scaling-stroke" stroke-linecap="round" d="M47.889 24.4605L36.2223 31.1583 20.6667 31.1583 9 24.4605Z"/>
<path transform="translate(0,0)" style="stroke: rgb(0,0,128); stroke-width: 5; stroke-dasharray: NaN; stroke-linecap: round; stroke-linejoin: round; fill: rgb(0,0,128)" vector-effect="non-scaling-stroke" stroke-linecap="round" d="M8 8.2311L8 25.05 49 25.05 49 8.2311Z"/>
<text transform="matrix(1 0 0 1 28.5 15.6575)" style="fill: rgb(246,246,246); text-decoration-thickness: 6.6667%; white-space: pre" x="-22.5" y="5.96866" font-family="Impact, Charcoal, sans-serif" font-size="19" font-style="normal" font-weight="normal"><tspan x="-22.5" y="5.96866" style="stroke-width: 1; ">U</tspan><tspan x="-11.10938" y="5.96866" style="stroke-width: 1; ">H</tspan><tspan x="0.43896" y="5.96866" style="stroke-width: 1; ">C</tspan><tspan x="11.95947" y="5.96866" style="stroke-width: 1; ">C</tspan></text>
</svg>